# xmcd
#
# Track frame offsets: 
#        150
#        13052
#        25338
#        34411
#        42789
#        50808
#        64357
#        70127
#        86826
#        93462
#        103681
#        118658
#        130101
#        136224
#        141211
#        149915
#        161188
#        167046
#        175471
#        190335
#        200738
#        210272
#        216691
#        222232
#        229187
#        233940
#        252476
#        260265
#        266628
#        274963
#        294223
#        300419
#        304581
#
# Disc length: 4166 seconds
#
# Revision: 0
# Processed by: cddbd v1.5.2PL0 Copyright (c) Steve Scherf et al.
# Submitted via: ExactAudioCopy v0.95b4
#
DISCID=10104421
DTITLE=Bessenyei Ferenc és mások - Nem élhetek muzsikaszó nélkül
DYEAR=2007
DGENRE=Folklore
TTITLE0=A kanyargó Tisza partján, ott születtem
TTITLE1=Hálás szívvel, tisztelettel
TTITLE2=Régi nóta, híresnóta
TTITLE3=Halljátok cigányok
TTITLE4=Hallod-e nótás füttyös szép madár
TTITLE5=Esik esö sürü csöppje
TTITLE6=Badacsonyi kéknyelü
TTITLE7=Sirat engem az öszi szél
TTITLE8=Cudar ez a világ
TTITLE9=Hogyha a világon bor se volna
TTITLE10=Lehullott a rezgö nyárfa aranyszínü levele
TTITLE11=Írom a levelem Balog Máriának
TTITLE12=Nem jó mindig minden esete a fonóba eljárni
TTITLE13=Páros élet a legszebb a világon
TTITLE14=Hat nap óta szól a nóta
TTITLE15=Ha meghalok, csillag leszek
TTITLE16=Esik esö csendesen
TTITLE17=Hajlik a rózsafa, hajlik a nád
TTITLE18=Valahol az ember mindig elhibázza
TTITLE19=Befordultam a konyhára
TTITLE20=Most kezdödik a tánc
TTITLE21=Nincsen annyi tenger csillag az égen
TTITLE22=Érik a, érik a búzakalász
TTITLE23=Kiskendöm négy sarka
TTITLE24=Hajlik a rózsafa
TTITLE25=A faluban szól a nóta
TTITLE26=Ki tanyája ez a nyárfás
TTITLE27=Pántlikás kalapom fújdogálja a szél
TTITLE28=Hideg szél fúj
TTITLE29=Erdö szélén nagy a zsivaly, lárma
TTITLE30=Volt szeretöm tizenhárom
TTITLE31=Édesanyám, a kendöm
TTITLE32=Csitt csak rzsám, hallod
EXTD=
EXTT0=
EXTT1=
EXTT2=
EXTT3=
EXTT4=
EXTT5=
EXTT6=
EXTT7=
EXTT8=
EXTT9=
EXTT10=
EXTT11=
EXTT12=
EXTT13=
EXTT14=
EXTT15=
EXTT16=
EXTT17=
EXTT18=
EXTT19=
EXTT20=
EXTT21=
EXTT22=
EXTT23=
EXTT24=
EXTT25=
EXTT26=
EXTT27=
EXTT28=
EXTT29=
EXTT30=
EXTT31=
EXTT32=
PLAYORDER=
